<svg width="83" height="34" viewBox="0 0 83 34" fill="none" xmlns="http://www.w3.org/2000/svg">
<path d="M9.25265 7.72014H13.7839L13.8295 13.9287L9.30211 13.9619L9.38581 24.7974C9.38581 27.061 10.4929 27.791 12.555 27.7763C13.3032 27.7783 14.0495 27.7016 14.7806 27.5477L14.8263 33.336C13.5277 33.8096 12.1463 34.0338 10.7592 33.9959C5.54702 34.0328 2.26751 31.0465 2.22566 26.0619L2.13435 14.0135H0.0494609L0 7.71645H1.11854C2.58709 7.66115 2.74308 8.27684 2.70884 3.6831L2.6784 0.0479273L9.19558 0L9.25265 7.72014Z" fill="#D9D8D6"/>
<path d="M58.4492 14.9574C57.7336 14.8227 57.0059 14.7573 56.2768 14.762C52.5826 14.7915 49.3944 16.5501 49.4287 22.1356L49.52 33.9997H42.2913L42.0935 7.73132H49.0977L49.1243 11.9343C50.7298 8.50555 54.4164 7.74976 56.6953 7.73501C57.2926 7.73501 57.8367 7.77925 58.3808 7.82718L58.4492 14.9574Z" fill="#D9D8D6"/>
<path d="M62.5772 10.5072C64.3654 8.6761 67.305 7.7458 71.3962 7.7163C73.2183 7.65981 75.0374 7.89651 76.7796 8.41679C78.1392 8.83101 79.3622 9.58508 80.3254 10.6031C81.2612 11.6472 81.9276 12.8919 82.2695 14.2345C82.6907 15.8793 82.8977 17.5687 82.8859 19.2633L83 33.9884H76.0111L75.916 21.7298C75.916 20.8339 75.8627 19.9564 75.779 19.09C75.7147 18.2933 75.5234 17.5111 75.2121 16.7711C74.9277 16.1011 74.4544 15.5223 73.8463 15.1009C73.0917 14.6364 72.2046 14.4157 71.3125 14.4705C70.4234 14.4306 69.543 14.6558 68.79 15.1157C68.1871 15.5304 67.7154 16.0998 67.428 16.76C67.1141 17.4859 66.9251 18.2569 66.8688 19.0421C66.8003 19.895 66.7686 20.7552 66.7736 21.6229L66.8726 33.9957H60.0244L59.9103 19.1232C59.89 15.2103 60.779 12.3383 62.5772 10.5072Z" fill="#D9D8D6"/>
<path d="M36.79 31.1903C35.0145 33.0239 32.0749 33.9554 27.971 33.9849C26.1502 34.0411 24.3323 33.8044 22.5914 33.2844C21.2299 32.8699 20.0055 32.1144 19.0418 31.0944C18.1045 30.0513 17.4379 28.8062 17.0977 27.463C16.6765 25.8194 16.4694 24.1313 16.4813 22.4379L16.3672 7.71282H23.3371L23.4322 19.9714C23.4322 20.8636 23.4855 21.7447 23.5692 22.6074C23.6346 23.4052 23.8258 24.1885 24.1361 24.9301C24.4197 25.6006 24.8949 26.1786 25.5057 26.5966C26.2574 27.0644 27.1444 27.2854 28.0357 27.227C28.9245 27.269 29.8051 27.045 30.5581 26.5855C31.1614 26.1702 31.6341 25.601 31.924 24.9412C32.2387 24.2144 32.4265 23.4419 32.4794 22.6554C32.5479 21.8074 32.5821 20.9484 32.5745 20.0746L32.4794 7.70544H39.3276L39.4455 22.578C39.4633 26.4835 38.5781 29.3543 36.79 31.1903Z" fill="#D9D8D6"/>
</svg>
